<svg width="1117" height="574" viewBox="0 0 1117 574" fill="none" xmlns="http://www.w3.org/2000/svg">
<path d="M130 168.5C83.6 182.9 13.5 130 2 103C13 108.167 34 112.5 75 112.5C114 109 120.8 94.8 138 118C131.6 94.8 160.167 83 172 76.5C192.5 63 233.833 28.1667 235.5 21.5C252.3 86.3 189.833 144.833 172 154C287 251 405 239.5 483.5 195.5C658 72.5001 730.5 24.5 857 3.50003C974.5 -8.99997 1110.64 43.0424 1115 153C1121.5 317 856.257 410.023 697.261 446.34C669.199 508.576 628.029 548.097 602.5 564C564.1 584.8 571.167 561.333 579.5 547C587.167 530.5 596.5 513 593.5 488C592.253 477.606 581.473 463.833 579.807 459C368.307 441.5 198.333 289.833 130 168.5Z" stroke="white" stroke-width="2"/>
</svg>
