<svg width="1080" height="553" viewBox="0 0 1080 553" fill="none" xmlns="http://www.w3.org/2000/svg">
<path d="M130 147.5C83.6 161.9 13.5 109 2 82C13 87.1667 34 91.5 75 91.5C114 88 127.3 83.3 144.5 106.5C138.1 83.3 160.167 62 172 55.5C192.5 42 233.833 7.16667 235.5 0.5C252.3 65.3 189.833 123.833 172 133C297.6 263.8 405 218.5 483.5 174.5C658 51.5 706 24.5 828 8C945.5 -4.5 1014.5 31 1079 71M130 147.5C198.333 268.833 368.307 420.5 579.807 438M130 147.5C217.444 272.22 391.992 353.111 602.5 315.598C593 325.065 575.1 351.6 579.5 382C581.167 388.833 586.3 403.4 593.5 407C588.833 412.5 579.5 427.4 579.5 443C581.167 447.833 586.3 459.4 593.5 467C600.7 474.6 587.167 509.5 579.5 526C571.167 540.333 564.1 563.8 602.5 543C628.029 527.097 669.199 487.576 697.261 425.34M1079 71C994.708 139.545 807.418 249.498 727.5 280.317C727.5 337.582 714.999 385.999 697.261 425.34M1079 71C1079 276.616 856.257 389.023 697.261 425.34" stroke="black" stroke-width="2"/>
</svg>
